<?xml version="1.0" encoding="iso-8859-1"?>
<!-- Uploaded to: SVG Repo, www.svgrepo.com, Generator: SVG Repo Mixer Tools -->
<svg version="1.1" id="Layer_1" xmlns="http://www.w3.org/2000/svg" xmlns:xlink="http://www.w3.org/1999/xlink" 
	 viewBox="0 0 512 512" xml:space="preserve">
<rect x="168.115" y="38.833" style="fill:#D4E4AC;" width="176.531" height="24.067"/>
<path style="fill:#E2804F;" d="M216.257,304.489H56.31V167.211c0-13.294-11.211-24.071-24.505-24.071S7.299,153.917,7.299,167.211
	v305.163h481.76V304.489H336.815v46.925H232.538v-46.925H216.257z"/>
<path style="fill:#FFFFFF;" d="M55.779,191.284H7.635v-23.826c0-13.43,10.888-24.317,24.317-24.317l0,0
	c13.159,0,23.826,10.668,23.826,23.826V191.284z"/>
<rect x="7.635" y="440.622" style="fill:#D4E4AC;" width="481.436" height="31.502"/>
<g>
	<polygon style="fill:#F2BF7E;" points="264.4,415.953 95.898,415.953 95.898,303.618 232.304,303.618 232.304,351.761 
		264.4,351.762 	"/>
	<polygon style="fill:#F2BF7E;" points="288.472,415.953 456.973,415.953 456.973,303.618 336.616,303.618 336.616,351.761 
		288.472,351.762 	"/>
</g>
<rect x="232.308" y="271.516" style="fill:#D4E4AC;" width="104.308" height="80.239"/>
<path style="fill:#E2804F;" d="M505.117,303.618H336.616v-32.095H232.304v32.095H55.779V143.14h424.579
	c13.674,0,24.76,11.085,24.76,24.76v135.719H505.117z"/>
<path style="fill:#F2BF7E;" d="M505.117,175.235H55.779V143.14h423.974c14.009,0,25.364,11.356,25.364,25.364L505.117,175.235
	L505.117,175.235z"/>
<path d="M344.639,359.785H224.281v-96.287h120.358V359.785z M240.328,343.738h88.263v-64.192h-88.263L240.328,343.738
	L240.328,343.738z"/>
<rect x="94.892" y="167.886" width="17.727" height="15.642"/>
<rect x="128.261" y="167.886" width="15.642" height="15.642"/>
<rect x="159.544" y="167.886" width="16.684" height="15.642"/>
<rect x="192.912" y="167.886" width="15.642" height="15.642"/>
<rect x="224.196" y="167.886" width="15.642" height="15.642"/>
<rect x="256.521" y="167.886" width="15.642" height="15.642"/>
<rect x="288.847" y="167.886" width="15.642" height="15.642"/>
<rect x="320.13" y="167.886" width="16.684" height="15.642"/>
<rect x="353.499" y="167.886" width="14.599" height="15.642"/>
<rect x="383.739" y="167.886" width="17.727" height="15.642"/>
<rect x="417.108" y="167.886" width="15.642" height="15.642"/>
<rect x="448.391" y="167.886" width="16.684" height="15.642"/>
<path d="M353.499,296.147v15.642H512V167.211c0-18.027-13.885-32.694-30.956-32.694l-448.164,0.815
	c-0.186-0.003-0.369-0.014-0.555-0.014c-0.216,0-0.428,0.011-0.642,0.016l-0.4,0.001v0.009C13.941,135.892,0,149.971,0,167.212
	v313.505h497.401V320.13H481.76v144.945H71.951v-16.684h401.466V432.75H71.951V320.13H56.31V432.75H15.642v-233.58h23.984v-15.642
	H15.642v-16.316c0-8.809,7.64-16.251,16.684-16.251s16.684,7.442,16.684,16.251v144.577h166.843v-15.642H64.652V183.527h14.599
	v-15.642H64.652v-0.675c0-6.269-1.85-12.116-5.029-17.052h421.423c8.444,0,15.314,7.65,15.314,17.052v0.675h-14.599v15.642h14.599
	v112.619H353.499z M56.31,448.391v16.684H15.642v-16.684H56.31z"/>
<rect x="272.163" y="304.489" style="fill:#FFFFFF;" width="23.984" height="15.642"/>
<polygon points="272.163,423.365 87.593,423.365 87.593,320.13 103.234,320.13 103.234,407.723 256.521,407.723 256.521,368.098 
	272.163,368.098 "/>
<polygon points="465.075,423.365 280.505,423.365 280.505,368.098 296.147,368.098 296.147,407.723 449.434,407.723 449.434,320.13 
	465.075,320.13 "/>
<polygon points="344.639,127.092 328.591,127.092 328.591,70.925 184.16,70.925 184.16,127.092 168.113,127.092 168.113,54.877 
	344.639,54.877 "/>
<rect x="167.886" y="31.283" width="177.271" height="15.642"/>
</svg>